<svg width="933" height="512" viewBox="0 0 933 512" fill="none" xmlns="http://www.w3.org/2000/svg">
<path d="M489.356 273.488C474.909 273.488 463.154 261.735 463.154 247.287V212.592C463.154 206.614 458.291 201.751 452.313 201.751H364.5C360.283 201.751 356.866 198.334 356.866 194.117C356.866 189.9 360.283 186.483 364.5 186.483L452.313 186.483C466.71 186.483 478.423 198.196 478.423 212.592V247.287C478.423 253.315 483.328 258.219 489.355 258.219C495.384 258.219 500.288 253.314 500.288 247.287V212.592C500.288 198.195 512 186.483 526.396 186.483H537.63C541.847 186.483 545.264 189.9 545.264 194.117C545.264 198.334 541.847 201.751 537.63 201.751H526.398C520.421 201.751 515.558 206.614 515.558 212.592V247.287C515.558 261.735 503.804 273.488 489.356 273.488Z" fill="#344968"/>
<path d="M868.038 338.31H660.209C655.506 338.31 651.694 334.498 651.694 329.795V286.097C651.694 283.622 649.688 281.616 647.213 281.616H588.224C585.749 281.616 583.743 283.622 583.743 286.097V338.31V372.433C583.743 391.116 598.888 406.261 617.571 406.261H651.694H714.134C719.115 406.261 723.153 410.299 723.153 415.28V507.879C723.153 510.155 724.998 512 727.274 512H924.401C926.677 512 928.522 510.155 928.522 507.879V398.794C928.521 365.39 901.442 338.31 868.038 338.31Z" fill="#7289DA"/>
<path d="M868.038 338.31H843.314C876.718 338.31 903.797 365.389 903.797 398.793V512H924.401C926.677 512 928.522 510.155 928.522 507.879V398.794C928.521 365.39 901.442 338.31 868.038 338.31Z" fill="#646DBC"/>
<path d="M841.963 326.318H769.084L750.045 350.056C745.985 355.118 744.222 361.646 745.181 368.064L752.831 419.248C753.38 422.92 757.518 424.821 760.661 422.845L805.523 394.646L850.385 422.845C853.529 424.821 857.666 422.92 858.215 419.248L865.865 368.064C866.824 361.646 865.061 355.119 861.001 350.056L841.963 326.318Z" fill="#EBEAE6"/>
<path d="M769.085 277.548V347.912C769.085 349.907 769.777 351.841 771.042 353.384L798.853 387.291C802.305 391.499 808.743 391.499 812.195 387.291L840.006 353.384C841.271 351.841 841.963 349.908 841.963 347.912V277.548H769.085Z" fill="#F2A077"/>
<path d="M910.173 167.169H902.625V117.939C902.625 70.312 864.015 31.702 816.388 31.702H794.66C747.033 31.702 708.423 70.312 708.423 117.939V167.169H700.875C688.349 167.169 678.195 177.323 678.195 189.849V200.576C678.195 213.102 688.349 223.256 700.875 223.256H708.563C711.21 274.523 753.608 315.274 805.524 315.274C831.482 315.274 855.056 305.091 872.478 288.492C889.9 271.894 901.153 248.88 902.485 223.256H910.173C922.699 223.256 932.853 213.102 932.853 200.576V189.849C932.854 177.323 922.699 167.169 910.173 167.169Z" fill="#FFCCAA"/>
<path d="M910.173 167.169H902.625V117.939C902.625 70.311 864.015 31.702 816.388 31.702H794.66C794.244 31.702 793.834 31.728 793.419 31.734C840.472 32.4 878.416 70.728 878.416 117.94V167.17L878.276 223.258C876.944 248.883 865.691 271.896 848.269 288.494C833.598 302.471 814.566 311.897 793.421 314.527C797.386 315.02 801.426 315.276 805.525 315.276C831.483 315.276 855.057 305.092 872.479 288.494C889.901 271.895 901.154 248.882 902.486 223.258H910.174C922.7 223.258 932.854 213.104 932.854 200.577V189.85C932.854 177.323 922.699 167.169 910.173 167.169Z" fill="#F2A077"/>
<path d="M805.524 258.247C792.996 258.247 781.203 253.366 772.317 244.502C767.826 240.011 764.359 234.78 762.006 228.948C760.428 225.037 762.319 220.589 766.229 219.012C770.143 217.431 774.588 219.325 776.165 223.235C777.747 227.153 780.082 230.674 783.107 233.699C789.103 239.68 797.066 242.978 805.524 242.978C818.495 242.978 830.022 235.224 834.889 223.223C836.474 219.316 840.928 217.435 844.832 219.017C848.74 220.602 850.622 225.054 849.038 228.96C841.823 246.751 824.742 258.247 805.524 258.247Z" fill="#475D6D"/>
<path d="M756.915 181.091C752.698 181.091 749.281 177.674 749.281 173.457V168.766C749.281 164.549 752.698 161.132 756.915 161.132C761.132 161.132 764.549 164.549 764.549 168.766V173.457C764.55 177.674 761.132 181.091 756.915 181.091Z" fill="#475D6D"/>
<path d="M854.133 181.091C849.916 181.091 846.499 177.674 846.499 173.457V168.766C846.499 164.549 849.917 161.132 854.133 161.132C858.35 161.132 861.767 164.549 861.767 168.766V173.457C861.767 177.674 858.35 181.091 854.133 181.091Z" fill="#475D6D"/>
<path d="M677.982 0H817.829C864.661 0 902.625 37.965 902.625 84.796V117.939H734.026C703.074 117.939 677.982 92.847 677.982 61.895V0Z" fill="#F9DC6A"/>
<path d="M817.829 0H793.105C839.937 0 877.901 37.965 877.901 84.796V117.939H902.625V84.796C902.625 37.965 864.661 0 817.829 0Z" fill="#E5AC51"/>
<path d="M895.526 512V446.873C895.526 442.656 892.108 439.239 887.892 439.239C883.675 439.239 880.258 442.657 880.258 446.873V512H895.526Z" fill="#646DBC"/>
<path d="M639.189 240.87H596.244V281.613H639.189V240.87Z" fill="#FFCCAA"/>
<path d="M677.667 147.362H547.939C543.304 147.362 539.547 151.119 539.547 155.754V232.481C539.547 237.116 543.304 240.873 547.939 240.873H677.667C682.302 240.873 686.059 237.116 686.059 232.481V155.754C686.059 151.119 682.302 147.362 677.667 147.362Z" fill="#D2F5FF"/>
<path d="M677.667 215.522H547.939C543.304 215.522 539.547 211.765 539.547 207.13V232.481C539.547 237.116 543.304 240.873 547.939 240.873H677.667C682.302 240.873 686.059 237.116 686.059 232.481V207.13C686.059 211.765 682.302 215.522 677.667 215.522Z" fill="#9CC9D3"/>
<path d="M569.357 138.736V149.686C569.357 161.866 579.231 171.74 591.411 171.74H644.025C656.205 171.74 666.079 161.866 666.079 149.686V138.736C666.079 134.462 662.614 130.997 658.34 130.997H577.095C572.821 130.997 569.357 134.462 569.357 138.736Z" fill="#FFCCAA"/>
<path d="M519.622 117.514C517.669 117.514 515.714 116.768 514.224 115.278L495.641 96.696C492.659 93.715 492.659 88.881 495.64 85.9C498.622 82.918 503.456 82.919 506.436 85.899L525.02 104.482C528.002 107.463 528.002 112.297 525.021 115.278C523.53 116.768 521.575 117.514 519.622 117.514Z" fill="#8BA7BC"/>
<path d="M502.091 147.889C501.437 147.889 500.772 147.804 500.11 147.627L474.725 140.825C470.652 139.734 468.236 135.548 469.327 131.475C470.418 127.402 474.601 124.984 478.677 126.077L504.062 132.879C508.135 133.97 510.551 138.156 509.46 142.229C508.547 145.639 505.462 147.889 502.091 147.889Z" fill="#8BA7BC"/>
<path d="M549.989 99.981C546.618 99.981 543.534 97.732 542.62 94.32L535.819 68.934C534.728 64.861 537.144 60.676 541.217 59.585C545.292 58.493 549.476 60.91 550.567 64.984L557.368 90.37C558.459 94.443 556.043 98.628 551.97 99.719C551.308 99.897 550.643 99.981 549.989 99.981Z" fill="#8BA7BC"/>
<path d="M145.175 175.491C133.263 175.491 123.859 185.949 123.859 198.708C123.859 211.468 133.472 221.926 145.175 221.926C157.086 221.926 166.49 211.468 166.49 198.708C166.699 185.949 157.086 175.491 145.175 175.491ZM221.452 175.491C209.54 175.491 200.136 185.949 200.136 198.708C200.136 211.468 209.749 221.926 221.452 221.926C233.364 221.926 242.768 211.468 242.768 198.708C242.768 185.949 233.364 175.491 221.452 175.491Z" fill="#7289DA"/>
<path d="M323.016 0H42.9836C19.3689 0 0.142822 19.2433 0.142822 43.0883V325.882C0.142822 349.727 19.3689 368.97 42.9836 368.97H279.967L268.891 330.274L295.64 355.165L320.927 378.592L365.857 418.333V43.0883C365.857 19.2433 346.631 0 323.016 0ZM242.35 273.172C242.35 273.172 234.827 264.178 228.558 256.229C255.934 248.49 266.383 231.338 266.383 231.338C257.815 236.986 249.664 240.96 242.35 243.679C231.901 248.072 221.87 251 212.048 252.673C191.986 256.438 173.596 255.392 157.922 252.464C146.011 250.163 135.771 246.817 127.202 243.47C122.396 241.587 117.171 239.287 111.947 236.358C111.32 235.94 110.693 235.731 110.066 235.313C109.648 235.103 109.439 234.894 109.23 234.685C105.469 232.593 103.379 231.129 103.379 231.129C103.379 231.129 113.41 247.863 139.95 255.811C133.681 263.759 125.949 273.172 125.949 273.172C79.764 271.708 62.2098 241.378 62.2098 241.378C62.2098 174.027 92.3028 119.434 92.3028 119.434C122.396 96.8442 151.026 97.4717 151.026 97.4717L153.116 99.9817C115.5 110.858 98.1543 127.383 98.1543 127.383C98.1543 127.383 102.752 124.873 110.484 121.317C132.845 111.486 150.608 108.767 157.922 108.139C159.176 107.93 160.221 107.721 161.475 107.721C174.223 106.048 188.642 105.629 203.689 107.303C223.542 109.603 244.858 115.46 266.592 127.383C266.592 127.383 250.082 111.695 214.556 100.818L217.482 97.4717C217.482 97.4717 246.112 96.8442 276.205 119.434C276.205 119.434 306.298 174.027 306.298 241.378C306.298 241.378 288.535 271.708 242.35 273.172V273.172Z" fill="#7289DA"/>
</svg>
